<svg width="16" height="16" viewBox="0 0 16 16" fill="none" xmlns="http://www.w3.org/2000/svg">
<rect width="16" height="16" fill="white" fill-opacity="0.01"/>
<g clip-path="url(#clip0_1_2552)">
<path d="M3.1875 8.875C3.1875 8.41087 3.37187 7.96575 3.70006 7.63756C4.02825 7.30937 4.47337 7.125 4.9375 7.125H11.0625C11.5266 7.125 11.9717 7.30937 12.2999 7.63756C12.6281 7.96575 12.8125 8.41087 12.8125 8.875V13.25C12.8125 13.7141 12.6281 14.1592 12.2999 14.4874C11.9717 14.8156 11.5266 15 11.0625 15H4.9375C4.47337 15 4.02825 14.8156 3.70006 14.4874C3.37187 14.1592 3.1875 13.7141 3.1875 13.25V8.875Z" fill="#6C757D"/>
<path fill-rule="evenodd" clip-rule="evenodd" d="M4.9375 4.5C4.9375 3.68777 5.26016 2.90882 5.83449 2.33449C6.40882 1.76016 7.18777 1.4375 8 1.4375C8.81223 1.4375 9.59118 1.76016 10.1655 2.33449C10.7398 2.90882 11.0625 3.68777 11.0625 4.5V7.125H10.1875V4.5C10.1875 3.91984 9.95703 3.36344 9.5468 2.9532C9.13656 2.54297 8.58016 2.3125 8 2.3125C7.41984 2.3125 6.86344 2.54297 6.4532 2.9532C6.04297 3.36344 5.8125 3.91984 5.8125 4.5V7.125H4.9375V4.5Z" fill="#6C757D"/>
</g>
<defs>
<clipPath id="clip0_1_2552">
<rect width="14" height="14" fill="white" transform="translate(1 1)"/>
</clipPath>
</defs>
</svg>
