<svg width="16" height="16" viewBox="0 0 16 16" fill="none" xmlns="http://www.w3.org/2000/svg">
<rect width="16" height="16" fill="white" fill-opacity="0.01"/>
<path d="M10.4412 12.298L9.029 10.8849C8.48286 11.0801 7.8925 11.1163 7.32662 10.9891C6.76073 10.862 6.24259 10.5768 5.83247 10.1667C5.42235 9.75654 5.13712 9.23839 5.00998 8.67251C4.88283 8.10662 4.91899 7.51626 5.11425 6.97012L3.31175 5.16762C1.82075 6.49325 1 8 1 8C1 8 3.625 12.8125 8 12.8125C8.84035 12.8096 9.6712 12.6345 10.4412 12.298ZM5.55875 3.702C6.3288 3.3655 7.15964 3.19039 8 3.1875C12.375 3.1875 15 8 15 8C15 8 14.1784 9.50588 12.6891 10.8333L10.8849 9.029C11.0801 8.48286 11.1163 7.8925 10.9891 7.32662C10.862 6.76073 10.5768 6.24258 10.1667 5.83247C9.75654 5.42235 9.23839 5.13712 8.67251 5.00998C8.10662 4.88283 7.51626 4.91899 6.97013 5.11425L5.55875 3.70288V3.702Z" fill="black"/>
<path d="M5.83457 7.69022C5.78644 8.02649 5.81728 8.36935 5.92466 8.69163C6.03204 9.01391 6.213 9.30676 6.4532 9.54696C6.69341 9.78716 6.98625 9.96812 7.30853 10.0755C7.63081 10.1829 7.97367 10.2137 8.30994 10.1656L5.83369 7.69022H5.83457ZM10.1658 8.30972L7.69044 5.83347C8.02672 5.78534 8.36958 5.81618 8.69186 5.92356C9.01414 6.03094 9.30698 6.2119 9.54719 6.45211C9.78739 6.69231 9.96835 6.98515 10.0757 7.30743C10.1831 7.62971 10.214 7.97257 10.1658 8.30885V8.30972Z" fill="black"/>
<path fill-rule="evenodd" clip-rule="evenodd" d="M12.9404 13.5598L2.44043 3.05981L3.05993 2.44031L13.5599 12.9403L12.9404 13.5598Z" fill="black"/>
</svg>
