<svg width="18" height="18" viewBox="0 0 18 18" fill="none" xmlns="http://www.w3.org/2000/svg">
<rect width="18" height="18" fill="white" fill-opacity="0.01"/>
<g clip-path="url(#clip0_1_2386)">
<path d="M12.742 11.344C13.7103 10.0227 14.144 8.38447 13.9563 6.75713C13.7687 5.12979 12.9735 3.63332 11.7298 2.56711C10.4862 1.5009 8.88579 0.943582 7.24888 1.00666C5.61197 1.06973 4.05923 1.74854 2.90131 2.90729C1.74339 4.06603 1.06569 5.61926 1.00379 7.25621C0.94189 8.89317 1.50035 10.4931 2.56745 11.736C3.63455 12.9789 5.13159 13.773 6.75906 13.9596C8.38654 14.1461 10.0244 13.7112 11.345 12.742H11.344C11.374 12.782 11.406 12.82 11.442 12.857L15.292 16.707C15.4796 16.8946 15.7339 17.0001 15.9992 17.0002C16.2645 17.0003 16.5189 16.895 16.7065 16.7075C16.8942 16.52 16.9997 16.2656 16.9997 16.0003C16.9998 15.7351 16.8946 15.4806 16.707 15.293L12.857 11.443C12.8213 11.4068 12.7828 11.3734 12.742 11.343V11.344ZM13 7.49998C13 8.22225 12.8578 8.93745 12.5814 9.60474C12.305 10.272 11.8999 10.8783 11.3891 11.3891C10.8784 11.8998 10.2721 12.3049 9.6048 12.5813C8.93751 12.8577 8.22231 13 7.50004 13C6.77777 13 6.06258 12.8577 5.39528 12.5813C4.72799 12.3049 4.12168 11.8998 3.61096 11.3891C3.10023 10.8783 2.69511 10.272 2.41871 9.60474C2.14231 8.93745 2.00004 8.22225 2.00004 7.49998C2.00004 6.04129 2.57951 4.64234 3.61096 3.61089C4.64241 2.57944 6.04135 1.99998 7.50004 1.99998C8.95873 1.99998 10.3577 2.57944 11.3891 3.61089C12.4206 4.64234 13 6.04129 13 7.49998Z" fill="#6C757D"/>
</g>
<defs>
<clipPath id="clip0_1_2386">
<rect width="16" height="16" fill="white" transform="translate(1 1)"/>
</clipPath>
</defs>
</svg>
