<svg width="27" height="40" viewBox="0 0 27 40" fill="none" xmlns="http://www.w3.org/2000/svg">
<path d="M4.53891 8.74615C10.9389 5.14613 16.5389 1.74612 19.5389 0.246124C22.0389 -1.25388 23.1549 4.43744 21.0389 8.24615C18.923 12.0549 13.0389 14.2462 13.0389 14.2462C13.0389 14.2462 26.0389 11.2462 26.5389 22.7462C26.6694 25.7462 24.5389 29.2462 23.0389 30.2462C21.5389 31.2462 8.53894 38.9961 7.03894 39.7461C5.28068 40.6253 4.53893 38.2461 4.53893 35.2461C4.53893 28.2461 12.5389 25.7462 12.5389 25.7462C5.53893 26.7462 1.03893 24.2462 0.0389284 16.7462C-0.294401 14.2462 1.53894 10.4337 4.53891 8.74615Z" fill="white"/>
</svg>
